<svg width="54" height="18" viewBox="0 0 54 18" fill="none" xmlns="http://www.w3.org/2000/svg">
<g clip-path="url(#clip0)">
<path d="M18.7794 10.5L18.7794 7.5L21.5431 7.5L42.2715 7.5L42.2715 7.07143L32.9526 2.96429L32.9526 -4.64649e-07L33.1652 -4.55356e-07L43.5825 4.67857L43.5825 10.5L21.5431 10.5" fill="#0BB7C2"/>
<path d="M21.5431 7.5L43.5825 7.5L43.5825 13.3214L33.1652 18L32.9526 18L32.9526 15.0357L42.2715 10.9286L42.2715 10.5L21.5431 10.5L-0.0356027 10.5L-0.0356026 7.5" fill="#0BB7C2"/>
<path d="M54 9.03568L42.9094 4.39282L42.9449 13.6071L54 9.03568Z" fill="#0BB7C2"/>
</g>
<defs>
<clipPath id="clip0">
<rect x="54" width="18" height="54" transform="rotate(90 54 0)" fill="white"/>
</clipPath>
</defs>
</svg>
