<svg width="36" height="38" viewBox="0 0 36 38" fill="none" xmlns="http://www.w3.org/2000/svg">
<line y1="2.5" x2="36" y2="2.5" stroke="#0BB7C2" stroke-width="5"/>
<line y1="14.5" x2="36" y2="14.5" stroke="#0BB7C2" stroke-width="5"/>
<path d="M0.286 23.9H3.302L3.822 30.738V32.064H4.134V30.738L4.654 23.9H7.67V33H6.11V26.916L6.266 24.836H5.954L5.278 33H2.704L2.002 24.836H1.69L1.846 26.916V33H0.286V23.9ZM10.026 23.9H15.772V25.538H11.742V27.618H15.616V29.256H11.742V31.362H15.928V33H10.026V23.9ZM23.1329 32.142H23.3669V23.9H25.0829V33H21.7289L20.6629 24.758H20.4289V33H18.7129V23.9H22.0669L23.1329 32.142ZM34.1339 23.9V29.854C34.1339 30.894 33.8565 31.7087 33.3019 32.298C32.7559 32.8873 31.9412 33.182 30.8579 33.182C29.7745 33.182 28.9555 32.8873 28.4009 32.298C27.8549 31.7087 27.5819 30.894 27.5819 29.854V23.9H29.2979V29.854C29.2979 30.3913 29.4235 30.8117 29.6749 31.115C29.9262 31.4183 30.3205 31.57 30.8579 31.57C31.3952 31.57 31.7895 31.4183 32.0409 31.115C32.2922 30.8117 32.4179 30.3913 32.4179 29.854V23.9H34.1339Z" fill="#042D36"/>
</svg>
